<svg width="828" height="189" viewBox="0 0 828 189" fill="none" xmlns="http://www.w3.org/2000/svg">
<rect x="24" y="80" width="37" height="30" fill="white"/>
<path fill-rule="evenodd" clip-rule="evenodd" d="M165.118 48.7138V19H66L66 80H103.088V48.7138H165.118ZM103.118 80.8133V80H103.088V80.8133H103.118ZM103.118 109.66H149.502V80.8133H103.118V109.66ZM103.088 110H103.118V109.66H103.088V110ZM66 110L66 171.256H103.088V110H66Z" fill="white"/>
<path d="M279.514 42.978V59.8182H236.147V86.4942H269.38V103.036H236.147V147H215.283V42.978H279.514Z" fill="white"/>
<path d="M315.172 64.438V147H294.309V64.438H315.172Z" fill="white"/>
<path d="M381.538 63.2458C391.373 63.2458 399.322 66.3754 405.382 72.6346C411.443 78.7944 414.473 87.438 414.473 98.5654V147H393.609V101.397C393.609 94.8397 391.97 89.8225 388.691 86.3452C385.412 82.7685 380.941 80.9801 375.278 80.9801C369.516 80.9801 364.946 82.7685 361.568 86.3452C358.289 89.8225 356.65 94.8397 356.65 101.397V147H335.786V64.438H356.65V74.721C359.432 71.1443 362.959 68.3624 367.231 66.3754C371.602 64.289 376.371 63.2458 381.538 63.2458Z" fill="white"/>
<path d="M428.948 105.421C428.948 97.0752 430.588 89.6734 433.866 83.2156C437.244 76.7577 441.765 71.7901 447.428 68.3128C453.19 64.8355 459.598 63.0968 466.652 63.0968C472.812 63.0968 478.177 64.3387 482.747 66.8225C487.417 69.3063 491.143 72.4359 493.924 76.2113V64.438H514.937V147H493.924V134.928C491.242 138.803 487.516 142.032 482.747 144.615C478.078 147.099 472.663 148.341 466.503 148.341C459.549 148.341 453.19 146.552 447.428 142.976C441.765 139.399 437.244 134.382 433.866 127.924C430.588 121.367 428.948 113.866 428.948 105.421ZM493.924 105.719C493.924 100.652 492.931 96.33 490.944 92.7534C488.957 89.0773 486.274 86.2955 482.896 84.4078C479.518 82.4208 475.892 81.4272 472.017 81.4272C468.143 81.4272 464.566 82.3711 461.287 84.2588C458.009 86.1464 455.326 88.9283 453.24 92.6043C451.253 96.181 450.259 100.453 450.259 105.421C450.259 110.388 451.253 114.76 453.24 118.535C455.326 122.211 458.009 125.043 461.287 127.03C464.665 129.017 468.242 130.01 472.017 130.01C475.892 130.01 479.518 129.067 482.896 127.179C486.274 125.192 488.957 122.41 490.944 118.833C492.931 115.157 493.924 110.786 493.924 105.719Z" fill="white"/>
<path d="M581.066 63.2458C590.902 63.2458 598.85 66.3754 604.911 72.6346C610.971 78.7944 614.001 87.438 614.001 98.5654V147H593.137V101.397C593.137 94.8397 591.498 89.8225 588.22 86.3452C584.941 82.7685 580.47 80.9801 574.807 80.9801C569.045 80.9801 564.474 82.7685 561.096 86.3452C557.818 89.8225 556.179 94.8397 556.179 101.397V147H535.315V64.438H556.179V74.721C558.96 71.1443 562.487 68.3624 566.76 66.3754C571.131 64.289 575.9 63.2458 581.066 63.2458Z" fill="white"/>
<path d="M628.477 105.719C628.477 97.1745 630.216 89.7231 633.693 83.3646C637.17 76.9067 641.989 71.9391 648.149 68.4618C654.308 64.8851 661.362 63.0968 669.311 63.0968C679.544 63.0968 687.989 65.68 694.645 70.8463C701.401 75.9132 705.922 83.0665 708.207 92.3063H685.704C684.511 88.7296 682.475 85.9477 679.593 83.9607C676.812 81.8743 673.334 80.8311 669.161 80.8311C663.2 80.8311 658.481 83.0169 655.004 87.3884C651.527 91.6605 649.788 97.7706 649.788 105.719C649.788 113.568 651.527 119.678 655.004 124.049C658.481 128.321 663.2 130.457 669.161 130.457C677.606 130.457 683.12 126.682 685.704 119.131H708.207C705.922 128.073 701.401 135.177 694.645 140.442C687.889 145.708 679.444 148.341 669.311 148.341C661.362 148.341 654.308 146.602 648.149 143.125C641.989 139.548 637.17 134.581 633.693 128.222C630.216 121.764 628.477 114.263 628.477 105.719Z" fill="white"/>
<path d="M800.241 103.93C800.241 106.911 800.042 109.594 799.645 111.978H739.288C739.785 117.939 741.872 122.609 745.548 125.987C749.224 129.365 753.744 131.054 759.109 131.054C766.859 131.054 772.373 127.725 775.651 121.069H798.155C795.77 129.017 791.2 135.574 784.444 140.74C777.688 145.807 769.392 148.341 759.556 148.341C751.608 148.341 744.455 146.602 738.096 143.125C731.837 139.548 726.919 134.531 723.342 128.073C719.865 121.615 718.126 114.164 718.126 105.719C718.126 97.1745 719.865 89.6734 723.342 83.2156C726.82 76.7577 731.688 71.7901 737.947 68.3128C744.206 64.8355 751.409 63.0968 759.556 63.0968C767.405 63.0968 774.409 64.7858 780.569 68.1637C786.828 71.5417 791.647 76.3603 795.025 82.6195C798.502 88.7793 800.241 95.8829 800.241 103.93ZM778.632 97.9693C778.532 92.6043 776.595 88.3322 772.82 85.1529C769.044 81.8743 764.425 80.235 758.96 80.235C753.794 80.235 749.422 81.8246 745.846 85.0039C742.368 88.0838 740.232 92.4056 739.438 97.9693H778.632Z" fill="white"/>
<path d="M315.172 42.978V59.8182H294.309V42.978H315.172Z" fill="white"/>
</svg>
